<!-- icon666.com - MILLIONS vector ICONS FREE --><svg fill="none" viewBox="0 0 24 24" xmlns="http://www.w3.org/2000/svg"><path d="m16.528 6.46731c-.2942-.29158-.7691-.28947-1.0607.00473s-.2895.76907.0047 1.06065l1.763 1.74731c.7155.70914 1.2063 1.1972 1.5384 1.6107.1079.1344.1921.2527.2575.3593h-15.0309c-.41421 0-.75.3358-.75.75s.33579.75.75.75h15.0309c-.0654.1066-.1496.2249-.2575.3593-.3321.4135-.8229.9016-1.5384 1.6107l-1.763 1.7473c-.2942.2916-.2963.7665-.0047 1.0607s.7665.2963 1.0607.0047l1.7947-1.7788c.676-.6699 1.2284-1.2175 1.6202-1.7054.4075-.5073.7024-1.0222.7812-1.6403.0173-.1356.0259-.2719.0259-.4082s-.0086-.2726-.0259-.4082c-.0788-.6181-.3737-1.133-.7812-1.64034-.3918-.48788-.9442-1.03542-1.6202-1.70537z" fill="rgb(0,0,0)" style="fill: rgb(255, 255, 255);"></path></svg>