<!-- icon666.com - MILLIONS vector ICONS FREE --><svg fill="none" viewBox="0 0 24 24" xmlns="http://www.w3.org/2000/svg"><path d="m8.52796 7.53269c.2942-.29158.29632-.76645.00473-1.06065-.29158-.2942-.76645-.29631-1.06065-.00473l-1.79473 1.77879c-.67597.66994-1.22845 1.21749-1.62025 1.70536-.40743.50734-.70237 1.02224-.78115 1.64034-.03455.2711-.03455.5453 0 .8164.07878.6181.37372 1.133.78115 1.6403.3918.4879.94428 1.0355 1.62026 1.7054l1.79472 1.7788c.2942.2916.76907.2895 1.06065-.0047s.28947-.7691-.00473-1.0607l-1.76297-1.7473c-.71549-.7091-1.2063-1.1972-1.5384-1.6107-.10792-.1344-.19213-.2527-.25751-.3593h15.03092c.4142 0 .75-.3358.75-.75s-.3358-.75-.75-.75h-15.03092c.06538-.1066.14959-.2249.25751-.3593.3321-.4135.82291-.90156 1.5384-1.6107z" fill="rgb(0,0,0)" style="fill: rgb(255, 255, 255);"></path></svg>